<svg xmlns="http://www.w3.org/2000/svg">
  <svg xmlns="http://www.w3.org/2000/svg" width="356" height="200" viewBox="0 0 356 200">
    <path fill-rule="evenodd" d="M169.086 28.397c-.921 1.109-.297 2.393 3.035 6.243 8.316 9.608 9.76 16.978 5.167 26.36-2.231 4.556-2.698 6.873-2.717 13.5-.021 6.688.382 8.723 2.452 12.409 3.058 5.444 5.216 6.967 7.355 5.192 1.378-1.143 1.263-1.825-1.058-6.262-3.717-7.11-3.705-14.369.039-22.707 2.389-5.321 2.794-7.376 2.465-12.5-.467-7.264-3.327-13.678-8.689-19.485-4.019-4.354-6.122-5.072-8.049-2.75m30.5 14.115c-1.724 1.304-1.793 1.855-.692 5.528 1.63 5.443.106 9.96-4.564 13.522-7.518 5.734-9.152 16.068-4.131 26.121 2.621 5.249 4.289 6.257 6.574 3.973 1.489-1.49 1.428-1.954-.78-5.882-1.646-2.929-2.412-5.898-2.445-9.483-.046-4.967.201-5.472 5.146-10.504 7.536-7.671 8.92-12.713 5.697-20.767-1.78-4.45-2.052-4.592-4.805-2.508m-41.743 2.933c-.954 2.095-.736 2.893 1.522 5.577 3.279 3.897 3.429 8.519.462 14.268-4.011 7.774-2.602 15.341 4.329 23.235 3.737 4.256 6.154 5.677 8.272 4.864 2.685-1.03 1.753-3.636-3.039-8.502-5.772-5.86-6.821-11.159-3.499-17.671 2.338-4.583 2.837-12.932.988-16.532-1.403-2.731-5.971-7.684-7.087-7.684-.458 0-1.335 1.1-1.948 2.445M129 107.053c0 15.195 4.425 28.295 13.576 40.197l4.422 5.75h-20.392c-17.982 0-20.466.194-21.022 1.641-.834 2.174 1.373 5.381 6.621 9.623 10.665 8.621 11.337 8.71 65.409 8.724 27.013.007 48.344-.408 51.5-1.002 11.738-2.21 21.602-9.902 20.716-16.156l-.33-2.33-20.175-.5-20.176-.5 3.226-3.517c2.932-3.198 3.993-3.628 11.675-4.736 15.998-2.307 24.796-9.343 25.727-20.574.913-11.01-4.367-16.301-15.385-15.416-5.045.405-6.134.235-5.704-.886.292-.762.237-2.958-.123-4.879L227.909 99H129v8.053m6.347 5.197c1.385 15.7 7.739 28.819 17.813 36.782l5.02 3.968h19.459c22.44 0 22.4.012 30.386-8.7 8.281-9.035 13.975-23.234 13.975-34.849V105h-87.293l.64 7.25m94.678 3.032c-1.796.908-2.672 2.401-3.189 5.432-.392 2.299-1.85 6.994-3.24 10.434-1.389 3.44-2.346 6.436-2.125 6.656.981.982 10.495-1.142 14.05-3.136 7.425-4.164 10.739-12.996 6.922-18.445-1.801-2.572-8.232-3.059-12.418-.941M117.5 160.644c1.1.87 4.025 2.543 6.5 3.719 4.362 2.072 5.907 2.146 50.5 2.436 30.366.197 48.174-.077 52.398-.805 6.286-1.085 13.359-3.983 14.593-5.98.422-.681-20.128-1.004-62.682-.982-57.893.029-63.138.167-61.309 1.612"/>
  </svg>
</svg>
