<svg xmlns="http://www.w3.org/2000/svg" width="356" height="200" viewBox="0 0 356 200" version="1.1">
	<rect x="0" y="0" width="100%" height="100%" fill="#FFFFFF" />
	<path d="M 170.250 27.697 C 168.128 28.495, 168.850 30.726, 172.514 34.694 C 180.538 43.385, 182.190 52.245, 177.605 62 C 174.082 69.495, 173.998 79.306, 177.394 86.598 C 179.991 92.176, 182.163 93.713, 184.119 91.357 C 185.106 90.168, 185.121 89.466, 184.190 88.166 C 181.804 84.838, 180.707 81.385, 180.236 75.719 C 179.842 70.984, 180.221 68.899, 182.328 64.204 C 186.023 55.971, 186.561 51.193, 184.526 44.721 C 181.871 36.281, 173.612 26.432, 170.250 27.697 M 199.565 43.329 C 198.080 44.415, 197.953 45.044, 198.873 46.763 C 199.493 47.921, 200 50.500, 200 52.494 C 200 55.453, 199.106 57.074, 195.138 61.310 C 188.791 68.084, 187.731 70.291, 187.787 76.605 C 187.847 83.210, 191.607 91.350, 194.817 91.820 C 197.565 92.222, 197.614 90.572, 195.022 84.859 C 193.926 82.445, 193.034 78.301, 193.022 75.570 C 193.002 71.035, 193.348 70.314, 197.336 66.570 C 203.402 60.876, 205.169 57.761, 205.247 52.625 C 205.313 48.272, 203.437 42, 202.070 42 C 201.692 42, 200.564 42.598, 199.565 43.329 M 158.140 45.714 C 157.422 46.997, 157.787 48.146, 159.591 50.291 C 163.385 54.800, 163.579 57.455, 160.635 64.624 C 157.545 72.148, 157.369 76.021, 159.869 81.500 C 162.044 86.268, 168.708 93, 171.252 93 C 174.863 93, 174.097 90.192, 169.131 85.226 C 162.484 78.579, 161.793 75.082, 165.496 66.829 C 168.810 59.445, 168.550 53.941, 164.607 47.982 C 161.778 43.708, 159.676 42.970, 158.140 45.714 M 129.330 100.582 C 128.387 103.039, 129.768 117.782, 131.570 124.500 C 133.818 132.879, 138.576 142.050, 143.737 147.950 L 148.119 152.959 127.310 153.230 C 107.020 153.493, 106.492 153.553, 106.200 155.604 C 105.767 158.632, 115.338 167.045, 122.627 170.045 C 128.484 172.455, 128.617 172.463, 172.500 172.791 C 218.970 173.138, 229.819 172.490, 238 168.879 C 246.013 165.342, 251.761 157.827, 248.999 154.499 C 247.969 153.258, 244.298 153, 227.669 153 L 207.584 153 211.864 148.639 C 215.865 144.562, 216.578 144.240, 222.822 143.692 C 232.222 142.868, 238.552 140.398, 243.527 135.613 C 248.359 130.967, 250.563 124.876, 249.507 119.091 C 248.017 110.928, 242.896 107.412, 233.866 108.356 L 228.108 108.958 227.804 104.229 L 227.500 99.500 178.722 99.240 C 134.768 99.007, 129.884 99.139, 129.330 100.582 M 134.480 110.662 C 136.420 128.772, 143.800 143.476, 154.654 150.856 C 157.633 152.881, 158.982 153, 178.896 153 L 199.983 153 206.330 146.750 C 210.710 142.437, 213.816 138.175, 216.352 133 C 219.822 125.917, 223 113.447, 223 106.912 L 223 104 178.384 104 L 133.767 104 134.480 110.662 M 231.045 114.400 C 227.895 115.538, 227.446 116.216, 225.961 122.074 C 225.065 125.608, 223.357 130.695, 222.166 133.377 C 220.975 136.060, 220 138.473, 220 138.741 C 220 139.008, 222.137 138.926, 224.750 138.557 C 231.610 137.590, 239.533 133.492, 241.873 129.702 C 245.135 124.417, 245.109 118.111, 241.811 115.039 C 239.354 112.750, 236.142 112.559, 231.045 114.400 M 115.244 159.243 C 115.472 159.934, 118.292 161.850, 121.509 163.500 L 127.360 166.500 179.001 166.500 L 230.642 166.500 236.461 163.500 C 239.662 161.850, 242.330 160.050, 242.390 159.500 C 242.462 158.845, 220.476 158.411, 178.664 158.243 C 127.750 158.037, 114.912 158.240, 115.244 159.243" stroke="none" fill="#000000" fill-rule="evenodd"/>
</svg>