<svg xmlns="http://www.w3.org/2000/svg">
  <svg xmlns="http://www.w3.org/2000/svg" width="875" height="1080" viewBox="0 0 875 1080">
    <path fill-rule="evenodd" d="M444.764 17.996c-4.254 1.281-9.527 4.863-11.746 7.979-2.833 3.978-2.549 4.313 1.717 2.027 10.006-5.363 24.271.879 27.244 11.92 2.651 9.845-1.448 20.069-16.27 40.578C432.1 99.331 428 108.636 428 120.689c0 5.949 3.154 16.562 6.038 20.315l1.918 2.496.022-4.04c.074-13.552 9.072-31.142 29.135-56.96 3.847-4.95 8.843-12.711 11.103-17.247 3.707-7.443 4.116-9.004 4.184-16 .106-10.858-2.283-17.266-8.905-23.888-3.852-3.853-6.58-5.61-10.529-6.782-5.712-1.697-11.786-1.917-16.202-.587m3.635 5.598c12.227 2.958 17.149 8.999 17.033 20.906-.086 8.858-3.702 16.991-15.147 34.075-12.57 18.763-17.318 29.591-17.256 39.357l.029 4.568 3.506-6.57c3.297-6.18 6.29-10.119 23.431-30.834 16.788-20.287 20.402-32.853 13.663-47.51-5.229-11.373-11.753-15.637-23.724-15.503l-7.434.084 5.899 1.427m-19.411 48.82c-6.675 4.866-17.302 16.579-21.426 23.615-8.69 14.828-11.868 26.391-11.809 42.971.062 17.739 3.815 31.861 15.321 57.65 15.293 34.277 18.273 44.051 18.249 59.85-.018 11.935-2.378 22.577-8.306 37.459-2.255 5.66-3.935 10.788-3.732 11.396.542 1.626 6.331-6.717 10.804-15.57 5.858-11.595 8.098-20.952 8.052-33.641-.05-13.978-2.876-24.949-11.628-45.144-3.695-8.525-8.938-20.615-11.653-26.866-13.78-31.73-14.952-55.752-3.89-79.697 4.346-9.407 11.507-20.364 10.743-16.437-.268 1.375-1.255 5.875-2.193 10-2.345 10.316-2.398 31.611-.108 43.464 3.534 18.286 8.356 30.843 24.401 63.536 5.534 11.275 11.25 24.061 12.703 28.412 9.401 28.153 6.584 49.612-8.497 64.719-5.416 5.426-9.781 7.936-29.519 16.977-4.935 2.261-4.96 2.295-1.927 2.641 4.57.522 16.443-2.227 23.084-5.346 8.24-3.87 19.076-14.9 23.238-23.657 5.957-12.53 7.268-23.814 4.568-39.3-2.341-13.423-5.623-21.996-17.398-45.446-21.648-43.112-26.926-61.617-25.804-90.469.613-15.779 2.838-26.11 7.824-36.332 2.064-4.232 3.672-7.776 3.572-7.875-.1-.1-2.201 1.291-4.669 3.09M369.5 347.536c-22.919 1.726-50.08 5.732-78.5 11.578-21.532 4.43-72.379 21.319-94.189 31.285-8.471 3.871-33.453 17.595-39.311 21.596-2.2 1.502-6.025 3.757-8.5 5.012-14.18 7.185-26.325 18.093-30.64 27.518-5.037 11.001-5.736 46.181-1.422 71.475 6.851 40.166 22.432 90.518 41 132.5 6.453 14.591 22.589 46.302 26.812 52.692 1.341 2.031 2.165 4.137 1.829 4.68-.336.544-3.191 1.296-6.345 1.673s-13.834 2.7-23.734 5.163C93.346 728.42 46.448 752.916 25.277 781.251c-7.54 10.091-9.641 16.098-9.704 27.749-.058 10.449 1.701 15.724 8.569 25.706 14.372 20.889 51.643 42.434 103.496 59.828 19.137 6.419 20.145 6.893 29.834 14.029 37.34 27.5 92.221 51.017 144.176 61.78 41.777 8.654 61.455 10.755 106.6 11.38 46.462.643 69.196-.846 109.982-7.204 30.457-4.748 50.417-10.238 80.77-22.216 34.342-13.552 69.375-34.471 89.441-53.408l8.059-7.605 18.5-6.262c23.345-7.903 35.858-12.983 53.5-21.721 23.051-11.418 34.352-19.094 47.482-32.254 18.316-18.359 22.231-36.365 12.247-56.322-10.109-20.207-42.699-43.876-81.229-58.993-13.177-5.17-40.694-14.258-46.25-15.274-2.062-.378-3.75-1.046-3.75-1.486 0-1.664 6.761-6.418 13.524-9.51 3.863-1.767 16.688-6.913 28.5-11.437 47.01-18.005 64.213-26.951 83.129-43.232 18.287-15.739 32.879-42.276 36.874-67.063 1.768-10.963.762-32.886-1.983-43.236-1.167-4.4-4.442-12.725-7.277-18.5-4.599-9.368-6.34-11.716-16.154-21.783-20.282-20.803-37.429-28.423-64.113-28.489-18.241-.045-34.635 4.097-45.024 11.374-3.14 2.199-5.819 3.864-5.954 3.698-.136-.165-.74-4.225-1.345-9.023-1.316-10.452-3.737-16.589-10.807-27.386-17.5-26.728-70.16-54.69-132.692-70.46-53.677-13.536-144.882-20.86-204.178-16.395m8.688 6.023c-24.215 1.462-40.91 3.436-59.688 7.057-13.366 2.578-55.55 12.87-68 16.59-43.939 13.131-107.647 46.713-122.115 64.369-2.998 3.659-3.816 5.582-4.165 9.791-.426 5.135-.334 5.349 4.727 10.886 20.983 22.958 68.357 45.213 128.242 60.243C361.355 548.639 509.627 543.387 610 509.998c40.541-13.486 69.005-28.608 88.203-46.862 10.525-10.006 10.786-11.172 4.776-21.289-7.224-12.159-20.193-23.44-39.626-34.466-49.687-28.194-104.204-43.466-176.353-49.402-36.316-2.988-48.277-4.047-56-4.96-10.649-1.258-25.548-1.105-52.812.54m-9.688 10.532c-22.289 1.49-44.058 4.865-74.5 11.552-25.921 5.694-38.217 9.104-57.841 16.039-38.869 13.738-59.874 26.769-67.052 41.598-6.357 13.13 1.756 28.794 21.983 42.443 28.192 19.024 75.015 35.612 122.141 43.272 36.569 5.944 132.57 10.757 161.385 8.092 40.127-3.712 66.454-9.456 99.884-21.792 41.571-15.34 74-37.039 82.234-55.026 3.378-7.377 3.453-16.173.196-22.945-9.935-20.659-55.012-40.484-113.316-49.837-8.737-1.401-16.103-2.331-16.368-2.066-.265.265.584.714 1.886.999 90.681 19.8 133.571 44.598 121.843 70.446-2.678 5.902-14.584 17.502-25.086 24.443-4.737 3.13-8.79 5.691-9.008 5.691-.217 0-.235-2.021-.038-4.491 1.368-17.203-27.754-30.577-81.612-37.479-32.211-4.129-48.267-5.02-90.231-5.011-74.118.015-107.271 2.831-146.342 12.429-43.845 10.77-72.945 24.378-78.603 36.755l-1.692 3.702-9.932-5.463c-25.068-13.789-36.453-27.756-32.467-39.832 2.73-8.272 17.574-20.249 37.036-29.882 12.109-5.994 35.507-14.173 63.5-22.198 32.647-9.359 45.372-11.859 94.5-18.566 12.375-1.69 22.95-3.237 23.5-3.439 1.664-.611-13.239-.286-26 .566M389 434.97c-6.325.422-13.75.879-16.5 1.017l-5 .249 5 .924c29.257 5.407 46.998 13.249 53.629 23.705 7.13 11.242 1.035 17.527-28.319 29.205-20.65 8.215-29.854 14.139-31.345 20.173-.56 2.264-.085 3.337 2.715 6.137l3.394 3.394 12.963.822c18.096 1.148 74.314 1.104 83.963-.066l8-.969-11.5-.588c-9.02-.46-12.39-1.05-15.624-2.736-6.296-3.281-9.376-7.507-9.376-12.863 0-8.506 4.03-12.889 23.628-25.694 13.436-8.778 19.745-14.718 20.7-19.486 1.37-6.839-6.903-14.566-21.727-20.294l-8.101-3.13-27.5-.284c-15.125-.156-32.675.062-39 .484m110.846 14.015c-1.455.886-1.245 1.416 1.75 4.411 2.196 2.196 3.404 4.365 3.404 6.112 0 2.449.264 2.645 2.75 2.046 5.628-1.357 6.877-7.293 2.25-10.694-3.131-2.301-7.982-3.197-10.154-1.875m27.404.046c-2.955 1.188-2.867 3.731.176 5.117 5.053 2.303 11.112-1.819 7.045-4.793-2.107-1.541-3.984-1.625-7.221-.324m174.25 19.816c-4.4 4.591-11.825 11.236-16.5 14.767-10.582 7.992-40.601 23.357-59 30.199-62.946 23.406-157.643 36.579-239.242 33.279-69.363-2.805-116.025-10.493-167.33-27.57-46.193-15.375-76.764-32.532-93.745-52.612-2.753-3.256-5.141-5.785-5.306-5.62-.838.838 3.924 47.138 6.142 59.71 7.566 42.893 25.389 96.294 46.891 140.5 31.161 64.06 66.688 111.07 117.09 154.935 10.853 9.446 11.147 9.62 22 13.024 22.868 7.173 45.125 11.997 72.5 15.714 14.298 1.942 57.077 1.651 75-.509 29.845-3.598 66.813-12.627 82.528-20.158 8.722-4.179 25.844-20.2 45.671-42.733 39.64-45.049 66.131-89.458 89.046-149.273 17.381-45.368 27.739-86.013 32.236-126.5 1.515-13.636 1.953-41.232.699-44-.508-1.121-2.699.607-8.68 6.847m55.693-3.821c-13.275 1.821-20.786 5.031-32.835 14.034l-5.141 3.841-.668 8.3c-1.484 18.452-3.731 38.519-4.98 44.481-.729 3.475-1.203 6.318-1.053 6.318.149 0 5.451-6.413 11.782-14.25 12.068-14.941 26.651-31.135 27.38-30.405.568.568-19.779 29.172-27.83 39.124a5944.263 5944.263 0 0 0-10.167 12.604c-2.657 3.309-4.27 6.684-5.301 11.092l-1.483 6.335 2.988 2.679c3.667 3.288 10.469 4.519 15.606 2.824 6.268-2.069 8.791-6.882 11.876-22.658 3.099-15.842 5.723-22.318 11.652-28.75 5.867-6.365 13.296-9.787 22.533-10.38 6.5-.417 8.037-.16 12.672 2.119 5.65 2.778 13.221 8.555 12.352 9.424-.29.29-1.101.101-1.802-.42-.701-.521-2.624-1.496-4.274-2.166l-3-1.219 3.5 3.114c2.242 1.996 2.781 2.862 1.5 2.41-5.456-1.921-5.89-1.62-2.199 1.52 2.091 1.778 3.565 3.471 3.275 3.761-.29.29-1.101.072-1.802-.483-.701-.556-3.749-1.81-6.774-2.788-3.025-.978-6.175-2.027-7-2.33-.825-.304.391 1.601 2.703 4.233C788.469 536.232 792 546.892 792 561.5c0 15.835-3.941 26.03-14.397 37.244-8.144 8.735-20.186 16.485-44.421 28.588-30.676 15.319-54.594 30.747-60.314 38.903-2.444 3.485-2.011 3.276 5.382-2.596 7.149-5.678 5.687-3.003-2.307 4.22-6.221 5.621-7.74 7.767-13.1 18.5-3.334 6.678-8.503 16.471-11.486 21.764l-5.424 9.623 2.049 5.475c2.5 6.684 8.051 12.507 12.764 13.391 10.36 1.944 19.143-6.988 26.752-27.202 1.39-3.695 2.318-6.927 2.061-7.184-.257-.257-4.313 3.51-9.013 8.372-4.7 4.861-8.546 8.54-8.546 8.174 0-1.408 5.095-10.151 9.567-16.418 7.378-10.339 19.61-17.008 59.933-32.674 42.633-16.564 57.975-24.514 74.037-38.36 12.532-10.804 27.195-32.31 31.5-46.199 10.999-35.483 6.21-66.699-13.93-90.802-17.105-20.471-49.398-32.931-75.914-29.293m-457.87 11.752c-2.444.384-4.966 2.912-3.935 3.943.841.842 7.106.71 8.544-.179 3.123-1.93-.008-4.486-4.609-3.764M260 481.752c-4.121 2.058-4.474 4.177-1 6.002 4.148 2.178 14.174-.159 15.499-3.613 1.534-3.996-8.104-5.584-14.499-2.389m415.154 42.835c-10.64 11.305-19.139 20.762-18.886 21.014.814.814 16.201-12.201 22.163-18.747 5.702-6.261 17.635-22.901 16.378-22.839-.17.009-9.014 9.266-19.655 20.572M485.25 506.031c-2.761 1.11-2.878 2.563-.316 3.934 4.664 2.496 10.819-.148 8.066-3.465-1.382-1.665-4.331-1.843-7.75-.469m189.295 33.014c-8.657 9.402-15.555 17.278-15.329 17.504.636.636 8.421-6.127 17.861-15.517 7.795-7.753 14.891-17.397 13.687-18.601-.263-.263-7.562 7.213-16.219 16.614M143 524.775c0 2.274 18.706 20.668 28.38 27.907 5.433 4.066 10.067 7.204 10.296 6.975.23-.229-7.141-7.296-16.379-15.704a15827.875 15827.875 0 0 1-19.547-17.807c-1.512-1.386-2.75-2.003-2.75-1.371m609.913 2.482c-3.86 4.225-6.489 11.45-8.344 22.932-2.685 16.61-6.747 24.17-14.998 27.918-7.775 3.531-18.859 1.793-23.133-3.628-.796-1.01-2.262 2.702-5.858 14.837-2.638 8.901-8.51 26.309-13.048 38.684-4.538 12.375-8.114 22.663-7.946 22.862.167.199 2.242-1.214 4.609-3.141 2.368-1.926 7.68-5.511 11.805-7.966 9.75-5.803 49.508-26.755 50.771-26.755 2.331 0 16.892-10.594 23.12-16.822 11.963-11.963 15.752-21.577 14.85-37.678-1.085-19.367-10.282-32.334-24.059-33.92-4.474-.515-5.028-.324-7.769 2.677M145 538.984c0 1.683 11.884 13.837 21.623 22.113 8.507 7.23 11.816 9.079 6.814 3.808-7.574-7.981-28.437-26.999-28.437-25.921m676.496 69.472c-2.629 4.683-6.325 10.321-8.215 12.529-4.737 5.533-2.514 5.076 2.671-.549 3.968-4.304 11.879-18.938 10.814-20.003-.27-.27-2.642 3.34-5.27 8.023m-13.72 13.155c-7.211 9.667-13.37 16.129-14.394 15.104-.357-.356.762-2.254 2.485-4.216 1.723-1.963 3.132-4.115 3.13-4.784-.001-.668-1.689.648-3.75 2.925-4.372 4.831-15.901 14.65-22.667 19.305-2.596 1.786-4.506 3.463-4.243 3.725.838.838 6.942-2.722 14.528-8.474 4.051-3.071 8.241-5.649 9.311-5.727 2.522-.186 14.914-12.451 19.449-19.249 6.013-9.014 3.139-7.975-3.849 1.391M698 649.5c-1.288 1.371-2.116 2.717-1.841 2.992.275.275 1.553-.621 2.841-1.992 1.288-1.371 2.116-2.717 1.841-2.992-.275-.275-1.553.621-2.841 1.992m-8.015 6.015c-1.857 1.917-2.923 3.485-2.368 3.485 1.292 0 6.9-5.817 6.242-6.475-.273-.272-2.016 1.073-3.874 2.99m-.046 61.33c-1.712 5.267-3.942 11.2-4.954 13.184-2.242 4.396-9.008 10.665-13.563 12.568-4.262 1.781-11.545 1.801-15.704.043C649.56 740.037 643 731.187 643 725.481c0-1.43-.406-2.348-.903-2.041-.496.307-5.061 7.117-10.144 15.135-10.311 16.262-19.143 28.152-31.584 42.519-4.603 5.316-8.369 9.832-8.369 10.036 0 .203 2.363.497 5.25.653 7.292.393 20.07 3.794 27.417 7.298 7.538 3.596 18.532 13.934 21.296 20.026 5.06 11.153-.237 21.841-16.623 33.541-15.526 11.087-50.099 22.705-82.846 27.842-40.046 6.281-71.416 8.59-116.494 8.572-67.98-.027-112.123-4.586-155.215-16.028-28.392-7.54-43.657-14.767-54.953-26.021-10.181-10.142-11.977-18.692-6.304-30.013 4.845-9.67 17.644-19.2 31.622-23.546l5.649-1.756-8.979-10.099c-8.812-9.911-41.926-54.629-47.187-63.723l-2.676-4.624-4.728.933c-60.791 12.005-108.043 30.416-137.162 53.441-9.216 7.288-19.079 18.662-22.856 26.358-3.777 7.698-4.255 18.202-1.199 26.34 2.883 7.678 9.965 16.877 17.928 23.289 37.717 30.37 110.535 55.825 211.06 73.781 57.475 10.266 69.789 11.853 98.5 12.698 24.121.709 50.982.262 99.5-1.657 15.222-.602 21.567-1.464 77.5-10.533 106.977-17.346 171.865-34.004 225.445-57.878 32.242-14.366 57.154-33.324 65.16-49.586 3.099-6.296 3.395-7.681 3.395-15.917 0-8.39-.244-9.476-3.483-15.521-4.651-8.681-20.709-24.764-32.328-32.377-23.179-15.189-54.01-28.471-84.739-36.506l-10.898-2.849-3.113 9.577M594.5 740.797c-12.18 6.406-15.392 8.6-13.205 9.021 2.45.472 15.521-6.159 20.205-10.249 2.2-1.922 3.55-3.497 3-3.5-.55-.003-5.05 2.124-10 4.728m-37.476 45.557c-10.162 5.57-17.732 10.271-16.823 10.446 2.792.538 16.513-5.755 25.638-11.759 7.988-5.254 12.645-9.202 10.533-8.928-.479.062-9.186 4.671-19.348 10.241m-291.003-2.635c.012.43 3.594 3.69 7.961 7.246 4.45 3.624 7.472 6.754 6.877 7.122-1.208.747 2.21 3.492 12.907 10.363 12.715 8.168 27.374 14.589 33.141 14.518 1.698-.021-2.927-2.751-13.407-7.913-16.488-8.12-19.51-10.386-6.641-4.979 4.027 1.692 7.552 2.847 7.833 2.566.281-.281-2.306-1.933-5.749-3.671-5.855-2.956-24.093-13.907-37.193-22.334-3.163-2.034-5.74-3.347-5.729-2.918M563 794.613c-11.647 7.439-31.306 17.252-36.096 18.018-3.985.638-6.439 2.369-3.357 2.369 3.145 0 13.256-3.005 20.6-6.123 7.438-3.158 18.031-9.982 25.353-16.332 5.725-4.967 3.31-4.198-6.5 2.068m-314.096 5.844c-8.397 2.938-10.249 3.914-16.626 8.768-5.972 4.546-10.759 11.194-11.71 16.265-2.165 11.538 8.629 22.218 32.742 32.397 14.402 6.08 13.852 6.061 11.053.385-1.999-4.052-2.201-5.323-1.339-8.424 2.232-8.026 16.878-16.701 30.476-18.05 2.934-.291 2.846-.415-4-5.616-3.85-2.924-12.513-10.462-19.252-16.75-6.738-6.287-12.813-11.399-13.5-11.358-.686.041-4.216 1.113-7.844 2.383M282 798.402c0 .313 2.7 1.932 6 3.598s6 2.805 6 2.531c0-.273-2.363-1.74-5.25-3.258-6.71-3.529-6.75-3.546-6.75-2.871m292.5 10.393c-4.4 4.271-10.385 9.865-13.3 12.433l-5.3 4.668 4.3 1.069c16.303 4.053 29.318 17.128 27.373 27.499-.667 3.552-5.57 9.468-10.573 12.756-1.728 1.135.588.74 7.5-1.282 16.379-4.79 24.041-7.746 33.774-13.029 19.325-10.489 24.923-21.099 17.249-32.695-5.599-8.461-19.504-14.903-38.271-17.732-14.562-2.195-13.755-2.419-22.752 6.313m-278.767-2.671c.679.684 1.486.991 1.793.683.308-.308-.247-.867-1.233-1.243-1.425-.542-1.54-.428-.56.56m258.017 22.538c.688.278 1.813.278 2.5 0 .688-.277.125-.504-1.25-.504s-1.937.227-1.25.504m-7.75 5.372c-4.293 3.79-25.891 16.929-36.5 22.202-18.725 9.308-48.297 14.149-86.5 14.16-25.256.008-37.473-1.553-61.5-7.858-25.336-6.647-40.179-13.006-53.5-22.918-4.125-3.069-8.5-5.589-9.721-5.6-3.659-.033-18.394 5.773-23.857 9.401-8.487 5.635-9.436 11.498-2.915 18.019 3.959 3.959 8.332 5.482 25.993 9.05 36.372 7.35 84.383 11.473 133.898 11.5 31.164.017 107.823-5.91 123.518-9.55 6.537-1.516 15.914-5.776 21.014-9.546 4.224-3.123 7.416-9.412 6.671-13.141-.863-4.313-4.897-9.256-9.991-12.241-4.58-2.684-17.886-7.532-20.535-7.482-.866.016-3.6 1.818-6.075 4.004m-26 7.097c-4.778 1.92-41.341 10.877-52.886 12.956-8.468 1.525-17.573 2.232-33.614 2.611-19.903.47-23.826.271-41.161-2.085-24.925-3.388-44.205-6.959-57.716-10.689-5.982-1.652-11.074-2.806-11.315-2.565-.508.508 17.147 7.437 26.692 10.476 22.736 7.239 36.45 9.193 69.112 9.85 25.265.507 28.793.367 41.5-1.657 22.177-3.532 40.499-8.754 57.638-16.428 3.163-1.416 5.75-2.805 5.75-3.087 0-.718-1.098-.548-4 .618m148 58.058c-5.775 1.666-23.325 5.684-39 8.929-22.239 4.603-26.743 5.775-20.5 5.336 9.446-.665 32.612-3.999 37.25-5.36 1.788-.525 3.25-.611 3.25-.192s-1.462 1.249-3.25 1.845c-8.755 2.915-31.152 11.157-30.44 11.202 1.537.097 23.204-4.983 28.005-6.566 2.648-.873 5.075-1.327 5.393-1.008.318.318-.274.875-1.315 1.239-1.041.363-8.223 3.28-15.959 6.481-19.363 8.012-29.944 11.424-47.711 15.388-36.419 8.125-73.303 12.684-121.223 14.984-72.712 3.49-131.274 1.075-171-7.052-30.501-6.239-81.933-21.306-111.75-32.738-3.712-1.423-6.75-2.427-6.75-2.23 0 .72 25.709 15.403 32.5 18.561 3.85 1.791 10.819 5.042 15.487 7.225 48.258 22.57 101.035 34.309 172.513 38.372 16.662.947 34.681 1.376 44.5 1.06 25.016-.806 75.134-6.945 100-12.249 42.235-9.01 83.196-26.045 117.368-48.812 14.838-9.886 25.282-17.612 23.632-17.484-.275.022-5.225 1.402-11 3.069M0 1040.003v39.999l437.75-.251 437.75-.251.261-40 .261-40-438.011.252L0 1000.005v39.998m.456-.003c0 22.275.132 31.388.293 20.25.161-11.138.161-29.362 0-40.5-.161-11.138-.293-2.025-.293 20.25m33.257-2.25c1.944 5.362 4.004 11.213 4.578 13 .575 1.787 1.644 3.25 2.377 3.25.733 0 1.332-.171 1.332-.38s2.015-6.059 4.477-13 4.149-12.62 3.749-12.62c-.401 0-2.481 5.063-4.624 11.25-2.143 6.188-4.231 11.629-4.641 12.092-.41.463-1.304-.887-1.988-3-3.426-10.591-7.25-20.342-7.978-20.342-.448 0 .775 4.388 2.718 9.75m53.447 1.3c-.109 7.844.225 11.935 1.04 12.75 1.943 1.943 3.265 1.372 1.455-.629-1.192-1.317-1.655-3.695-1.655-8.5 0-6.004.2-6.671 2-6.671 1.1 0 2-.45 2-1s-.871-1-1.937-1c-1.435 0-2.041-.841-2.34-3.25-.221-1.787-.475 1.947-.563 8.3m43.155-10.043c-2.346.945-4.315 3.883-4.315 6.437 0 2.281 3.365 4.825 8.778 6.636 3.838 1.284 4.78 2.067 5.032 4.183.427 3.585-2.744 5.142-8.969 4.405-3.744-.444-4.841-.258-4.841.818 0 2.452 8.298 3.021 12.7.87 3.117-1.522 3.858-2.457 4.12-5.2.415-4.325-1.695-6.622-8.009-8.719-5.315-1.765-6.773-3.573-4.8-5.95 1.625-1.959 6.438-1.894 9.524.128 2.28 1.494 2.465 1.49 2.465-.051 0-.956-1.478-2.284-3.468-3.115-3.909-1.633-5.101-1.697-8.217-.442m16.7 9.743c.009 5.912.346 11.245.75 11.85.404.605 1.805 1.664 3.112 2.354 1.92 1.011 2.531 1.003 3.179-.044.525-.85.05-1.67-1.377-2.379-1.832-.909-2.226-2.073-2.477-7.306-.272-5.704-.126-6.225 1.75-6.225 1.154 0 2.048-.655 2.048-1.5 0-.833-.889-1.5-2-1.5-1.556 0-2-.667-2-3 0-2-.5-3-1.5-3-1.241 0-1.497 1.854-1.485 10.75M194 1041c0 10.659.26 13 1.443 13 .977 0 1.541-1.346 1.75-4.172.169-2.295.786-4.33 1.372-4.522.586-.192 2.526 1.685 4.312 4.172 1.786 2.487 3.894 4.522 4.685 4.522 2.075 0 1.839-.686-2.062-6-1.925-2.622-3.5-5.139-3.5-5.592 0-.453 1.666-2.53 3.703-4.616 3.157-3.233 3.407-3.792 1.696-3.792-1.104 0-3.533 1.575-5.399 3.5s-3.754 3.5-4.196 3.5c-.442 0-.804-2.925-.804-6.5 0-5.111-.321-6.5-1.5-6.5-1.256 0-1.5 2.111-1.5 13m20-12.617c0 .211.901.619 2.001.907 1.101.288 1.75.115 1.441-.383-.538-.871-3.442-1.313-3.442-.524m.083 2.9c.23.156 1.215.894 2.19 1.641 1.543 1.183 1.691 1.146 1.143-.283-.347-.902-1.332-1.641-2.19-1.641-.857 0-1.372.127-1.143.283m-160.589 4.969c-5.125 4.408-4.073 13.744 1.87 16.593 2.914 1.398 9.636.825 9.636-.821 0-.511-1.29-.514-3.057-.008-4.68 1.343-9.943-1.395-9.943-5.171 0-1.604.849-1.845 6.5-1.845H65v-3.045c0-3.521-3.845-7.955-6.899-7.955-1.094 0-3.167 1.013-4.607 2.252m20.006-1.044c-3.369 1.932-4.435 4.09-4.468 9.042-.049 7.266 5.344 11.348 11.675 8.838l2.793-1.108-3.321.499c-7.756 1.166-12.366-5.67-8.827-13.09 1.618-3.394 2.696-3.825 8.648-3.455 1.999.124 2.199-.051 1-.874-1.959-1.344-5.003-1.284-7.5.148m25.5.041c-1.474.766-3.079 2.965-3.912 5.359-1.282 3.687-1.236 4.417.5 7.959 5.107 10.416 18.882 3.62 15.505-7.65-.606-2.024-1.706-4.18-2.443-4.792-2.205-1.83-6.982-2.264-9.65-.876m16.03 8.501c-.018 6.187.366 10.25.97 10.25.584 0 1-3.349 1-8.048 0-8.006.016-8.055 3.017-9.317 1.659-.698 2.707-1.577 2.329-1.955-.377-.378-1.714-.014-2.97.81-2.064 1.352-2.382 1.328-3.3-.247-.735-1.263-1.024 1.081-1.046 8.507m46.334-8.58c-2.699 1.306-4.364 4.914-4.364 9.454 0 4.395 4.515 9.376 8.5 9.376 1.6 0 3.815-1.161 5.577-2.923 7.548-7.548-.331-20.45-9.713-15.907m20.656.114c-3.428 1.735-5.182 5.51-4.649 10.005.729 6.147 5.048 9.437 10.746 8.185 3.971-.872 2.667-3.164-1.522-2.675-2.63.307-3.697-.106-4.972-1.926-.893-1.275-1.623-3.468-1.623-4.873 0-1.405.73-3.598 1.623-4.873 1.275-1.82 2.342-2.233 4.972-1.926 3.815.445 5.518-1.668 2.086-2.589-3.077-.825-3.858-.746-6.661.672m-127.456 1.844c-1.494 1.175-2.564 3.03-2.564 4.445 0 2.272.347 2.427 5.441 2.427 6.196 0 7.217-.885 5.366-4.647-1.891-3.841-5.091-4.704-8.243-2.225m45.66-1.015c-2.729 1.009-4.224 3.916-4.224 8.21 0 4.765 2.836 8.01 7 8.01 4.236 0 7-3.245 7-8.221 0-6.355-4.427-9.978-9.776-7.999m61.431 2.716c-2.237 2.471-2.138 8.424.174 10.516 4.093 3.705 9.171.649 9.171-5.519 0-5.952-5.715-9.008-9.345-4.997m438.345.977c0 1.96 4.266 13.194 5.01 13.194.999 0 5.416-12.907 4.672-13.652-.289-.288-1.317 1.991-2.286 5.064-.969 3.073-2.047 5.588-2.396 5.588-.349 0-1.415-2.475-2.368-5.5-1.565-4.962-2.632-6.866-2.632-4.694m60.571.765c-2.3 2.301-1.967 3.263 1.929 5.562 5.378 3.173 4.725 5.32-1.5 4.933-1.999-.124-2.199.051-1 .874 2.167 1.487 4.625 1.292 6.429-.511 2.3-2.301 1.967-3.263-1.929-5.562-5.165-3.047-4.69-5.392 1-4.937 1.663.133 1.747-.014.5-.87-2.11-1.448-3.611-1.307-5.429.511M698 1046c0 4 .429 7 1 7 .55 0 1-1.125 1-2.5s.374-2.5.831-2.5c.457 0 1.433 1.125 2.169 2.5s1.722 2.5 2.192 2.5c.47 0 .105-1.143-.811-2.541-1.393-2.127-1.464-2.983-.435-5.25l1.23-2.709-2.588 2.424-2.588 2.425v-4.175c0-2.296-.45-4.174-1-4.174-.571 0-1 3-1 7m58.479-5.75c-2.44 6.663-4.411 13.152-4.091 13.471.216.216 1.536-3.007 2.934-7.164 1.397-4.156 2.332-7.557 2.078-7.557-.255 0-.669.563-.921 1.25m5.771-.588c-2.389.964-1.232 1.989 1.75 1.551 4.185-.614 3.975 2.002-.5 6.222-4.854 4.578-4.522 5.599 1.75 5.39 5.019-.167 5.063-.191 1-.557-2.337-.211-4.25-.724-4.25-1.141 0-.418 1.575-2.153 3.5-3.858 3.917-3.468 4.195-4.431 1.929-6.698-1.592-1.591-2.913-1.823-5.179-.909m11.5.061c1.788.222 3.25.812 3.25 1.312 0 .499-1.1 3.396-2.445 6.436-1.345 3.041-2.12 5.529-1.722 5.529.701 0 6.167-11.744 6.167-13.25 0-.412-1.913-.678-4.25-.59-3.684.139-3.817.214-1 .563m8.807 1.5c-4.266 6.089 1.937 15.706 6.548 10.151 2.077-2.504 1.726-9.294-.569-10.971-2.681-1.96-4.176-1.756-5.979.82m12.454-.736c-.679.818-.961 2.201-.626 3.073.334.872.161 2.42-.385 3.44-1.237 2.312-.371 4.747 1.952 5.485 3.737 1.186 7.236-2.349 4.996-5.048-.774-.932-.779-1.884-.019-3.304 1.95-3.644-3.257-6.852-5.918-3.646m10.989 1.501c0 2.448.381 2.945 2.109 2.75 2.531-.286 4.47 2.311 3.538 4.74-.471 1.227-1.416 1.608-3.159 1.275-2.745-.525-3.41.679-.906 1.64 2.582.991 3.291.731 4.966-1.826 1.99-3.037.596-6.242-3.12-7.175-3.227-.809-2.605-2.71 1.154-3.524 2.756-.596 2.71-.638-.832-.75-3.523-.111-3.75.063-3.75 2.87m11.571-1.417c-2.891 2.892-1.17 6.429 3.129 6.429 2.712 0 2.873.709.706 3.104-.892.986-2.285 1.496-3.164 1.159-1.037-.398-1.325-.206-.847.567 2.09 3.382 7.005-1.176 7.005-6.497 0-2.345-.648-4.041-1.891-4.95-2.406-1.76-3.013-1.736-4.938.188m11.629-.371c-1.451 1.451-1.6 3.165-.2 2.3.615-.38 1 1.295 1 4.358 0 3.045-.485 5.171-1.25 5.48-.687.277.325.504 2.25.504s2.938-.227 2.25-.504c-.818-.33-1.25-2.724-1.25-6.921 0-6.425-.556-7.461-2.8-5.217m9.937 3.55-3.099 4.75 2.981.313c2.174.229 2.981.838 2.981 2.25 0 2.694 1.79 2.436 2.18-.313.509-3.581-.296-11.75-1.158-11.75-.432 0-2.18 2.138-3.885 4.75m-55.712-1.415c-.311.811-.422 2.98-.245 4.82.269 2.816.715 3.345 2.82 3.345 2.296 0 2.5-.367 2.5-4.5 0-3.908-.297-4.542-2.254-4.82-1.302-.185-2.494.303-2.821 1.155m12.763.404c.502 2.606 3.812 2.897 3.812.334 0-1.431-.642-2.073-2.073-2.073s-1.97.539-1.739 1.739m21.982.431c.22 1.553 1.107 2.44 2.66 2.66 1.939.275 2.275-.061 2-2-.22-1.553-1.107-2.44-2.66-2.66-1.939-.275-2.275.061-2 2m-184.276.08c-.458 5.399 1.072 9.75 3.428 9.75.702 0 .66-.418-.122-1.2-1.489-1.489-1.589-6.8-.129-6.8.59 0 .397-.675-.428-1.5-1.828-1.828-2.609-1.899-2.749-.25m36 0c-.458 5.399 1.072 9.75 3.428 9.75.702 0 .66-.418-.122-1.2-1.489-1.489-1.589-6.8-.129-6.8.59 0 .397-.675-.428-1.5-1.828-1.828-2.609-1.899-2.749-.25m169.721 1.215c-2.075 3.166-2.034 3.535.385 3.535 1.556 0 2-.667 2-3 0-3.64-.306-3.708-2.385-.535m-226.05.463c-2.211 2.444-1.272 5.793 2.049 7.306 1.879.856 2.722.808 3.663-.208.989-1.068.864-1.193-.654-.656-1.869.662-4.623-.823-4.623-2.492 0-.483 1.575-.878 3.5-.878 3.811 0 4.367-.99 1.929-3.429-2.084-2.083-3.747-1.982-5.864.357M625 1045c-1.1 1.1-2 2.45-2 3 0 1.508 3.8 5 5.441 5 .793 0 1.719-.449 2.058-.999.352-.569-.313-.891-1.549-.75-1.192.137-2.678-.538-3.303-1.501-1.544-2.377.408-5.334 3.303-5.001 1.236.141 1.901-.181 1.549-.75-.984-1.592-3.334-1.164-5.499 1.001m17 0c-1.1 1.1-2 2.45-2 3 0 1.297 3.703 5 5 5 1.297 0 5-3.703 5-5 0-1.297-3.703-5-5-5-.55 0-1.9.9-3 2m10 2.8c0 2.86.45 5.2 1 5.2s1-1.589 1-3.531c0-2.217.559-3.746 1.5-4.107.825-.317 1.5-1.033 1.5-1.591 0-.646-.482-.615-1.324.083-.966.802-1.641.781-2.5-.078-.901-.901-1.176.038-1.176 4.024m26-2.8c-1.1 1.1-2 2.45-2 3 0 1.297 3.703 5 5 5 1.297 0 5-3.703 5-5 0-1.297-3.703-5-5-5-.55 0-1.9.9-3 2m12 0c-2.408 2.408-2.447 2.917-.443 5.777 1.611 2.301 4.863 2.971 5.942 1.224.352-.569-.313-.891-1.549-.75-2.895.333-4.847-2.624-3.303-5.001.625-.963 2.111-1.638 3.303-1.501 1.236.141 1.901-.181 1.549-.75-.984-1.592-3.334-1.164-5.499 1.001m25.223-.443c-2.946 2.063-2.815 5.009.311 7.057 2 1.311 3.002 1.427 4.75.551 2.11-1.058 2.079-1.1-.649-.888-3.58.279-5.699-2.392-3.988-5.027.625-.963 2.111-1.638 3.303-1.501 1.236.141 1.901-.181 1.549-.75-.883-1.429-2.717-1.235-5.276.558m9.277.802c-2.645 4.037 1.265 8.907 5.382 6.704 3.673-1.965 3.414-6.968-.436-8.445-2.603-.999-3.314-.748-4.946 1.741M735 1048c0 2.75.45 5 1 5s1-1.52 1-3.378c0-3.498 2.134-6.276 3.956-5.149.574.355 1.044 2.418 1.044 4.586s.45 3.941 1 3.941 1-1.52 1-3.378c0-3.285 2.017-6.271 3.342-4.947.362.362.658 2.383.658 4.492 0 2.108.45 3.833 1 3.833 1.466 0 1.22-6.317-.329-8.435-1.063-1.454-1.734-1.602-3.347-.738-1.476.79-2.334.763-3.196-.099-.904-.904-1.637-.891-3.153.056-1.179.736-1.975.827-1.975.224 0-.554-.45-1.008-1-1.008s-1 2.25-1 5m-120.299-3.368c-1.406 1.406-.642 2.368 1.882 2.368 1.622 0 2.429-.465 2.167-1.25-.481-1.446-3.02-2.147-4.049-1.118m28.499.568c-2.848 2.848.264 8.319 3.3 5.8.825-.685 1.5-2 1.5-2.922 0-1.635-1.797-4.078-3-4.078-.33 0-1.14.54-1.8 1.2m36 0c-2.848 2.848.264 8.319 3.3 5.8.825-.685 1.5-2 1.5-2.922 0-1.635-1.797-4.078-3-4.078-.33 0-1.14.54-1.8 1.2m47 0c-2.848 2.848.264 8.319 3.3 5.8.825-.685 1.5-2 1.5-2.922 0-1.635-1.797-4.078-3-4.078-.33 0-1.14.54-1.8 1.2m69.467 1.467c-2.125 2.124.207 5.606 3.083 4.602 1.784-.622 1.547-3.941-.332-4.662-1.958-.752-1.94-.752-2.751.06M708 1052c0 .55.45 1 1 1s1-.45 1-1-.45-1-1-1-1 .45-1 1"/>
  </svg>
</svg>
