<svg xmlns="http://www.w3.org/2000/svg" width="875" height="1080" viewBox="0 0 875 1080" version="1.1">
	<rect x="0" y="0" width="100%" height="100%" fill="#FFFFFF" />
	<path d="M 441.500 19.657 C 438.131 21.427, 432 26.953, 432 28.219 C 432 28.674, 433.124 28.310, 434.497 27.410 C 436.378 26.177, 438.686 25.870, 443.857 26.162 C 456.796 26.893, 463.681 34.613, 462.788 47.388 C 462.185 56.017, 459.109 62.229, 447.181 78.905 C 441.439 86.932, 435.212 96.683, 433.344 100.573 C 427.582 112.566, 426.908 123.135, 431.168 134.659 C 434.268 143.042, 435.639 143.205, 436.250 135.260 C 437.197 122.955, 446.602 105.294, 463.676 83.757 C 467.488 78.948, 472.582 71.308, 474.995 66.779 C 478.922 59.409, 479.427 57.689, 479.810 50.390 C 480.321 40.653, 478.558 34.329, 473.479 27.676 C 468.423 21.055, 461.607 17.989, 452.054 18.040 C 447.181 18.066, 443.435 18.640, 441.500 19.657 M 444.500 21.713 C 440.240 22.738, 440.700 24, 445.332 24 C 450.392 24, 456.238 26.001, 459.320 28.788 C 466.298 35.098, 466.898 47.408, 460.846 60.124 C 458.851 64.317, 453.796 72.766, 449.614 78.898 C 437.561 96.571, 433.449 105.993, 432.362 118.437 C 431.716 125.830, 432.715 126.530, 434.839 120.172 C 436.514 115.157, 443.867 104.619, 453.101 94 C 464.497 80.895, 469.696 73.686, 473.634 65.528 C 476.433 59.731, 477 57.421, 477 51.816 C 477 38.256, 469.084 25.587, 458.679 22.497 C 453.755 21.035, 448.522 20.746, 444.500 21.713 M 426.947 74.361 C 416.939 82.217, 406.537 96.193, 401.695 108.288 C 396.063 122.358, 394.532 140.041, 397.564 156.023 C 399.772 167.666, 404.025 179.812, 412.961 200 C 423.682 224.221, 426.585 232.143, 428.547 242.525 C 431.653 258.956, 429.549 273.543, 420.965 295.088 C 418.738 300.677, 417.104 305.437, 417.333 305.667 C 417.783 306.116, 423.006 298.357, 427.281 290.890 C 434.494 278.290, 437.555 259.939, 435.041 244.356 C 433.231 233.136, 430.312 224.966, 418.586 198.307 C 403.914 164.951, 400.196 150.882, 401.312 132.943 C 401.966 122.447, 404.148 113.731, 408.465 104.378 C 411.608 97.567, 419.816 84.483, 420.511 85.177 C 420.693 85.360, 419.947 89.107, 418.854 93.504 C 415.899 105.389, 415.271 125.944, 417.459 139.105 C 420.596 157.963, 424.837 169.242, 442.804 206.500 C 456.412 234.720, 459.083 243.089, 459.746 259.596 C 460.474 277.736, 457.470 286.518, 446.702 297.732 C 441.912 302.720, 438.614 305.006, 430.590 308.899 C 425.040 311.591, 418.813 314.381, 416.750 315.098 C 411.118 317.056, 412.211 317.702, 419.787 316.893 C 441.113 314.614, 456.109 302.407, 463.578 281.243 C 465.507 275.777, 465.962 272.476, 465.979 263.815 C 466.018 244.093, 463.270 235.399, 445.967 200.500 C 426.699 161.637, 421.713 144.662, 421.737 118 C 421.751 101.620, 424.147 88.880, 429.316 77.692 C 431.271 73.461, 432.787 70, 432.685 70.001 C 432.583 70.001, 430.001 71.963, 426.947 74.361 M 389 346.579 C 387.625 346.733, 379.075 347.385, 370 348.028 C 319.960 351.577, 266.665 363.387, 221 381.047 C 211.375 384.769, 200.506 389.168, 196.847 390.822 C 188.981 394.378, 162.220 409.085, 156.500 412.996 C 154.300 414.500, 150.250 416.876, 147.500 418.276 C 139.564 422.316, 128.523 430.521, 124.728 435.201 C 116.263 445.638, 114.755 452.189, 114.670 478.886 C 114.601 500.523, 115.338 507.236, 120.584 532.774 C 128.003 568.898, 144.281 617.826, 160.914 654 C 167.401 668.107, 180.355 693.242, 185.488 701.681 C 186.887 703.981, 187.651 706.098, 187.186 706.385 C 186.722 706.672, 183.227 707.402, 179.421 708.006 C 163.324 710.562, 128.741 720.176, 107.493 728.003 C 88.698 734.925, 62.387 748.741, 48.596 758.929 C 39.766 765.452, 29.168 775.862, 24.783 782.319 C 19.512 790.081, 17.329 795.230, 16.117 802.756 C 13.808 817.093, 19.095 830.063, 32.982 844.128 C 43.242 854.520, 54.687 862.197, 75.818 872.857 C 93.831 881.945, 107.527 887.496, 131.353 895.363 C 143.833 899.484, 149.282 901.801, 152.353 904.294 C 181.716 928.131, 237.490 954.312, 283.500 965.855 C 307.734 971.935, 337.936 977.056, 368 980.184 C 387.124 982.173, 453.991 981.857, 475 979.678 C 536.210 973.329, 570.558 964.904, 614.500 945.462 C 642.378 933.128, 673.625 912.972, 692 895.472 C 697.200 890.519, 698.372 889.948, 713.500 884.990 C 735.819 877.676, 749.951 871.990, 768.309 862.939 C 789.937 852.275, 804.279 842.532, 815.526 830.864 C 829.847 816.007, 833.680 807.388, 832.732 792.180 C 832.275 784.861, 831.650 782.635, 827.969 775.206 C 817.755 754.593, 785.524 731.215, 746 715.752 C 733.438 710.838, 713.377 704.110, 702.754 701.250 C 696.162 699.475, 696.042 699.385, 697.513 697.285 C 700.591 692.890, 705.126 690.872, 761.500 668.811 C 813.208 648.576, 841.646 622.888, 854.401 584.888 C 862.691 560.194, 861.419 531.773, 851.022 509.381 C 845.423 497.322, 840.128 490.182, 829.525 480.393 C 819.184 470.846, 814.018 467.267, 804 462.706 C 780.752 452.123, 743.678 454.407, 724.391 467.611 C 720.876 470.018, 718 471.640, 718 471.217 C 718 466.124, 715.392 452.464, 713.558 447.950 C 710.704 440.926, 703.538 429.767, 698.785 424.944 C 688.390 414.396, 669.638 401.858, 648.067 391.034 C 607.830 370.842, 554.850 357.139, 493.362 351.019 C 462.886 347.986, 400.254 345.321, 389 346.579 M 372 353.517 C 341.448 355.490, 318.970 359.246, 281.500 368.637 C 252.934 375.797, 245.764 377.960, 226.555 385.212 C 179.769 402.874, 131.487 431.973, 124.867 446.500 C 121.610 453.645, 122.183 455.390, 130.630 464.070 C 140.458 474.170, 152.005 482.332, 167.834 490.367 C 215.779 514.708, 270.963 529.685, 338 536.550 C 359.413 538.743, 427.058 539.639, 453.385 538.078 C 539.298 532.986, 616.594 514.231, 666.500 486.369 C 683.437 476.914, 700.613 463.564, 705.665 455.930 C 708.030 452.356, 708.141 451.743, 706.962 448.761 C 704.537 442.633, 696.979 432.196, 690.867 426.537 C 682.457 418.751, 672.726 412.080, 657.980 403.993 C 606.838 375.945, 551.941 362.043, 468.500 356.010 C 459.700 355.374, 446.781 354.212, 439.792 353.427 C 424.751 351.738, 399.018 351.772, 372 353.517 M 373 364.089 C 347.766 365.851, 325.424 369.229, 293.500 376.108 C 270.904 380.977, 255.630 385.232, 236 392.126 C 199.080 405.093, 178.745 417.357, 170.294 431.753 C 166.656 437.950, 166.456 446.291, 169.782 453.096 C 180.501 475.022, 225.930 498.826, 283 512.421 C 307.236 518.194, 326.284 520.790, 368.500 524.073 C 422.070 528.239, 463.691 528.633, 489.500 525.219 C 525.977 520.393, 541.787 516.711, 570.500 506.353 C 612.744 491.114, 645.675 470.054, 655.490 452 C 659.457 444.703, 659.762 434.062, 656.211 426.854 C 646.637 407.421, 604.470 388.492, 549.500 378.952 C 540.150 377.330, 532.050 376.023, 531.500 376.049 C 530.950 376.075, 540.911 378.727, 553.636 381.942 C 582.302 389.186, 600.876 395.383, 616.707 402.984 C 631 409.847, 636.548 413.407, 643.829 420.389 C 657.030 433.049, 656.653 444.236, 642.550 458.339 C 639.135 461.754, 632.327 467.275, 627.421 470.608 C 614.809 479.174, 615.615 478.867, 616.373 474.826 C 619.084 460.375, 601.651 448.573, 565.857 440.627 C 526.163 431.815, 471.465 428.552, 402.500 430.881 C 355.083 432.482, 335.297 434.511, 308.111 440.562 C 280.565 446.693, 254.694 455.322, 238.771 463.690 C 230.464 468.055, 222.221 475.226, 220.343 479.722 C 219.590 481.525, 218.680 483, 218.322 483 C 216.967 483, 202.212 474.523, 195.328 469.789 C 186.880 463.980, 178.496 455.432, 176.453 450.543 C 174.743 446.449, 174.571 440.260, 176.058 436.347 C 180.508 424.643, 204.864 409.119, 236.783 397.643 C 274.945 383.922, 314.676 374.146, 353.500 368.924 C 394.658 363.388, 399.217 362.258, 373 364.089 M 388 434.602 C 386.625 434.768, 381.082 435.195, 375.682 435.551 C 370.282 435.906, 366.015 436.349, 366.201 436.534 C 366.387 436.720, 370.805 437.566, 376.019 438.413 C 397.454 441.899, 413.687 448.557, 422.682 457.551 C 427.526 462.396, 428 463.269, 428 467.358 C 428 475.614, 423.356 479.147, 399.616 488.952 C 373.365 499.794, 366 504.649, 366 511.110 C 366 516.257, 370.335 519.595, 378.033 520.377 C 394.242 522.024, 439.136 522.919, 455.778 521.928 C 475.051 520.780, 482.748 519.168, 469.460 519.063 C 460.834 518.995, 451.469 517.008, 447.491 514.402 C 440.365 509.733, 439.112 500.179, 444.707 493.175 C 446.322 491.154, 452.561 486.238, 458.572 482.251 C 476.704 470.223, 481.035 466.796, 483.573 462.465 C 484.908 460.188, 486 457.116, 486 455.640 C 486 451.540, 479.326 445.026, 470.830 440.832 C 457.273 434.141, 456.110 433.983, 421.568 434.150 C 404.481 434.232, 389.375 434.436, 388 434.602 M 499.063 448.940 C 497.900 449.676, 498.233 450.416, 500.813 452.826 C 503.070 454.933, 504 456.707, 504 458.901 C 504 461.640, 504.330 462, 506.845 462 C 510.490 462, 513 459.209, 513 455.157 C 513 452.635, 512.322 451.557, 509.750 449.989 C 506.318 447.896, 501.465 447.420, 499.063 448.940 M 525.647 449.838 C 524.093 451.555, 524.104 451.784, 525.821 453.338 C 528.919 456.142, 537 455.082, 537 451.871 C 537 451.471, 536.293 450.436, 535.429 449.571 C 533.274 447.417, 527.700 447.569, 525.647 449.838 M 709 459.878 C 709 461.885, 695.163 475.486, 686.656 481.842 C 655.212 505.334, 606.958 523.339, 543 535.445 C 527.505 538.378, 495.835 542.603, 479 543.982 C 472.675 544.501, 461.565 545.401, 454.312 545.982 C 424.781 548.351, 371.754 547.046, 331.368 542.957 C 277.377 537.490, 222.489 523.275, 180.500 503.885 C 153.563 491.445, 143.099 484.561, 129.250 470.169 L 120 460.556 120.012 464.028 C 120.034 470.131, 122.985 501.134, 124.578 512 C 134.110 576.991, 167.785 662.767, 207.288 722.679 C 221.390 744.065, 241.543 769.304, 258.949 787.379 C 267.205 795.951, 293.355 819.907, 299.500 824.528 C 304.756 828.479, 337.363 837.655, 361.409 841.948 C 415.457 851.599, 474.359 847.635, 526.954 830.808 C 532.204 829.128, 539.229 826.466, 542.565 824.892 C 559.084 817.098, 601.658 770.305, 627.930 731.067 C 639.908 713.179, 655.744 684.376, 664.515 664.528 C 691.730 602.942, 707.217 545.734, 711.025 492.730 C 712.068 478.210, 711.403 459, 709.857 459 C 709.386 459, 709 459.395, 709 459.878 M 751.131 465.541 C 742.977 467.310, 734.391 471.411, 725.250 477.903 L 718 483.052 718 488.886 C 718 496.582, 715.326 523.303, 713.491 533.935 C 712.691 538.574, 712.146 542.479, 712.281 542.614 C 712.415 542.748, 718.278 535.803, 725.309 527.179 C 739.986 509.178, 754.822 492.985, 748.837 501.500 C 746.904 504.250, 742.054 511.148, 738.060 516.830 C 734.065 522.511, 725.947 533.233, 720.019 540.657 C 710.391 552.714, 709.104 554.800, 707.956 560.205 C 707.110 564.192, 707.002 566.779, 707.638 567.787 C 709.453 570.666, 715.316 573, 720.732 573 C 725.360 573, 726.470 572.570, 729.941 569.434 C 734.476 565.337, 735.100 563.675, 737.987 548 C 740.490 534.410, 744.172 525.828, 750 520 C 759.384 510.616, 774.073 507.784, 785 513.253 C 788.025 514.767, 792.075 517.378, 794 519.056 L 797.500 522.107 793.175 519.995 C 787.711 517.327, 785.570 517.886, 790.093 520.799 L 793.500 522.994 790 522.416 L 786.500 521.838 789.988 525.117 C 792.150 527.150, 792.720 528.091, 791.488 527.593 C 786.491 525.574, 776 522.163, 776 522.558 C 776 522.800, 777.786 524.838, 779.970 527.088 C 784.835 532.102, 788.681 540.005, 790.553 548.837 C 795.873 573.935, 786.117 595.546, 762.526 610.927 C 758.140 613.786, 745.540 620.651, 734.526 626.183 C 703.640 641.696, 682.187 655.281, 674.250 664.354 C 670.292 668.879, 669.949 671.316, 673.750 667.908 C 680.644 661.727, 680.894 662.207, 674.341 669.038 C 668.486 675.140, 666.048 678.778, 660.965 689 C 657.546 695.875, 652.714 705.035, 650.226 709.357 L 645.702 717.213 647.349 722.437 C 650.613 732.793, 658.965 738.811, 667.179 736.727 C 674.671 734.825, 682.385 724.625, 687.985 709.217 C 689.241 705.762, 689.938 702.612, 689.535 702.217 C 689.132 701.823, 685.159 705.325, 680.706 710 C 672.400 718.721, 671.710 718.536, 677.299 709.086 C 685.497 695.222, 696.965 687.579, 727.656 675.527 C 736.920 671.889, 750.350 666.613, 757.500 663.802 C 788.343 651.676, 805.838 641.335, 820.691 626.452 C 839.710 607.395, 849.436 587.092, 853.123 558.750 C 856.099 535.875, 846.890 508.522, 830.289 490.923 C 811.060 470.539, 777.576 459.803, 751.131 465.541 M 297.176 477.059 C 295.713 477.645, 294.983 478.641, 295.207 479.745 C 295.482 481.106, 296.518 481.480, 299.820 481.411 C 304.910 481.304, 306.920 479.813, 305.035 477.542 C 303.612 475.828, 300.694 475.648, 297.176 477.059 M 258.750 481.572 C 253.266 484.547, 256.226 489.001, 263.684 488.998 C 270.874 488.996, 277.854 483.424, 273.848 480.885 C 271.666 479.502, 261.732 479.954, 258.750 481.572 M 484.246 506.154 C 481.213 509.187, 484.424 511.537, 490.629 510.828 C 492.937 510.564, 493.500 510.010, 493.500 508 C 493.500 505.799, 493.021 505.465, 489.496 505.204 C 487.247 505.039, 484.945 505.455, 484.246 506.154 M 684.273 515.304 C 679.198 520.912, 670.873 529.980, 665.773 535.456 C 656.529 545.381, 656.519 545.398, 662.500 540.814 C 673.403 532.458, 686.819 517.444, 693.385 506.250 C 694.813 503.814, 693.397 505.222, 684.273 515.304 M 686.822 525.902 C 685.545 527.498, 678.875 535.031, 672 542.641 L 659.500 556.478 668.106 549.185 C 677.312 541.383, 684.030 534.103, 688.348 527.250 C 691.384 522.430, 690.340 521.507, 686.822 525.902 M 143.789 525.601 C 146.151 530.025, 159.401 543.091, 168.746 550.213 C 185.521 562.998, 185.462 562.933, 154.605 534.500 C 148.039 528.450, 143.172 524.445, 143.789 525.601 M 752.101 527.694 C 748.185 532.444, 746.320 537.913, 744.005 551.429 C 741.586 565.554, 738.262 572.325, 731.776 576.335 C 723.719 581.316, 713.849 580.881, 707.841 575.279 L 705.182 572.800 702.591 581.400 C 701.166 586.130, 698.882 593.712, 697.515 598.250 C 696.148 602.788, 691.258 616.737, 686.647 629.250 C 682.036 641.763, 678.401 652, 678.568 652 C 678.735 652, 682.567 649.353, 687.084 646.117 C 694.425 640.859, 740.150 615.770, 747.351 613.050 C 755.283 610.053, 772.244 595.866, 778.141 587.295 C 788.674 571.985, 787.440 545.061, 775.615 532.180 C 770.753 526.885, 765.097 524.052, 759.323 524.022 C 755.711 524.003, 754.734 524.500, 752.101 527.694 M 149.069 543.969 C 153.139 548.797, 170.488 564.496, 174 566.530 C 174.825 567.007, 169.035 561.121, 161.132 553.449 C 145.741 538.506, 141.959 535.534, 149.069 543.969 M 822.578 607.305 C 821.002 610.162, 817.955 615.200, 815.807 618.500 L 811.902 624.500 815.438 620.500 C 818.856 616.634, 826.571 603.238, 825.815 602.482 C 825.611 602.278, 824.154 604.448, 822.578 607.305 M 809.955 619.237 C 807.560 622.682, 802.654 628.618, 799.051 632.430 C 795.317 636.380, 793.803 638.460, 795.531 637.268 C 799.874 634.270, 807.121 626.293, 811.518 619.670 C 816.712 611.848, 815.353 611.471, 809.955 619.237 M 790.500 635.588 C 786.650 639.161, 780.237 644.566, 776.250 647.598 C 772.263 650.631, 769 653.324, 769 653.582 C 769 655.249, 781.687 646.422, 788.335 640.130 C 791.888 636.766, 798.595 628.941, 797.834 629.046 C 797.650 629.072, 794.350 632.016, 790.500 635.588 M 697.964 650.164 C 696.819 652.397, 696.846 652.424, 698.574 650.774 C 699.568 649.824, 700.107 648.773, 699.771 648.438 C 699.436 648.103, 698.623 648.880, 697.964 650.164 M 690 655.500 C 688.712 656.871, 687.884 658.217, 688.159 658.492 C 688.434 658.767, 689.712 657.871, 691 656.500 C 692.288 655.129, 693.116 653.783, 692.841 653.508 C 692.566 653.233, 691.288 654.129, 690 655.500 M 692.212 708.702 C 691.712 709.691, 690.127 714.325, 688.692 719 C 685.382 729.778, 681.290 736.226, 675.384 739.972 C 661.757 748.614, 646.614 741.731, 643.210 725.348 L 642.445 721.666 631.472 738.579 C 619.958 756.328, 610.288 769.282, 598.849 782.284 C 595.082 786.566, 592 790.438, 592 790.889 C 592 791.341, 595.038 791.965, 598.750 792.277 C 607.140 792.982, 623.142 798.054, 628.592 801.736 C 638.181 808.213, 645.206 816.339, 647.011 823.040 C 650.151 834.701, 638.685 848.675, 617.500 859.006 C 585.617 874.554, 543.156 883.198, 477 887.608 C 449.936 889.412, 385.372 889.071, 364.500 887.014 C 319.804 882.609, 305.466 880.402, 280.081 874.020 C 240.982 864.190, 218.900 851.973, 212.486 836.620 C 205.929 820.928, 220.621 801.554, 244.804 794.003 C 247.721 793.092, 250.143 791.992, 250.186 791.557 C 250.229 791.123, 246.406 786.369, 241.691 780.992 C 230.154 767.838, 194.460 718.881, 192.821 713.963 C 192.377 712.632, 175.518 715.803, 155.500 720.982 C 103.120 734.533, 65.445 752.178, 42.899 773.718 C 20.650 794.975, 17.646 812.793, 32.904 833 C 44.685 848.604, 79.970 869.095, 119.655 883.380 C 138.286 890.086, 171.972 900.135, 190.860 904.621 C 207.641 908.607, 252.219 917.605, 266.500 919.890 C 273.650 921.033, 290.975 923.889, 305 926.235 L 330.500 930.500 372 930.500 C 422.409 930.500, 466.938 928.707, 482.964 926.031 C 489.309 924.971, 510.025 921.593, 529 918.524 C 632.060 901.852, 688.893 887.819, 744.372 865.343 C 772.954 853.764, 794.195 840.869, 809.102 826.047 C 819.391 815.816, 823.131 809.662, 825.142 799.649 C 829.387 778.508, 805.653 752.695, 762.500 731.525 C 744.748 722.816, 725.093 715.347, 708.500 711.004 C 701.900 709.277, 695.740 707.648, 694.811 707.384 C 693.828 707.105, 692.741 707.656, 692.212 708.702 M 594.360 741.320 C 584.023 746.675, 580.584 748.917, 581.421 749.755 C 582.240 750.573, 598.353 742.142, 601.962 739.007 C 603.866 737.353, 605.216 736.015, 604.962 736.034 C 604.708 736.052, 599.937 738.431, 594.360 741.320 M 558.787 785.877 C 549.045 791.221, 540.755 795.912, 540.365 796.302 C 539.074 797.593, 550.406 793.329, 556.504 790.229 C 562.340 787.263, 577 777.424, 577 776.474 C 577 775.837, 578.580 775.021, 558.787 785.877 M 271.500 788.421 C 280.731 796.880, 293.126 804.342, 307.286 809.964 C 314.550 812.848, 315.891 812.060, 308.863 809.037 C 304.308 807.077, 293.349 800.613, 272.500 787.588 L 266.500 783.839 271.500 788.421 M 570.502 789.997 C 569.711 791.276, 550.199 802.867, 541.248 807.375 C 537.471 809.277, 531.787 811.588, 528.616 812.509 C 521.194 814.667, 521.809 815.334, 529.554 813.527 C 539.133 811.292, 551.437 805.604, 559.950 799.474 C 567.340 794.154, 573.138 789, 571.733 789 C 571.395 789, 570.841 789.449, 570.502 789.997 M 249.280 799.951 C 240.400 803.147, 234.853 806.308, 229.394 811.284 C 220.899 819.027, 218.075 827.456, 221.350 835.294 C 223.336 840.047, 232.705 848.104, 241.654 852.754 C 249.484 856.823, 264.179 863, 266.028 863 C 266.565 863, 266.103 861.319, 265.002 859.265 C 263.901 857.210, 263 854.128, 263 852.415 C 263 844.604, 274.116 836.376, 288.989 833.176 L 297.016 831.449 289.383 825.574 C 285.185 822.342, 277.869 815.999, 273.125 811.477 C 257.346 796.436, 258.072 796.787, 249.280 799.951 M 284.056 801.555 C 292.426 807.766, 305.639 815.432, 313.242 818.491 C 330.444 825.410, 327.722 822.791, 306.500 812.005 C 294.400 805.855, 284.072 800.413, 283.550 799.911 C 283.028 799.410, 282.153 799, 281.606 799 C 281.059 799, 282.161 800.150, 284.056 801.555 M 569.139 813.071 C 560.981 820.952, 556.308 826.147, 557.139 826.413 C 557.888 826.652, 560.300 827.393, 562.500 828.059 C 577.112 832.484, 587 842.224, 587 852.193 C 587 856.319, 586.483 857.566, 583.325 861.062 C 581.304 863.299, 578.337 865.809, 576.732 866.638 C 571.285 869.455, 574.837 869.216, 585.686 866.035 C 600.184 861.784, 605.440 859.804, 615.228 854.903 C 636.049 844.478, 643.080 833.918, 637.059 822.115 C 631.272 810.772, 615.139 803.862, 587 800.674 L 582.500 800.164 569.139 813.071 M 553 827.933 C 553 828.520, 553.337 829.011, 553.750 829.024 C 554.163 829.037, 556.188 829.440, 558.250 829.919 C 564.471 831.363, 562.514 829.829, 555.250 827.566 C 553.884 827.141, 553 827.285, 553 827.933 M 551 829.778 C 550.175 830.034, 547.925 831.744, 546 833.580 C 541.594 837.780, 523.600 848.660, 510.500 855.044 C 492.580 863.776, 472.669 867.875, 438 869.969 C 409.829 871.670, 384.094 868.710, 355.329 860.463 C 331.227 853.552, 319.804 848.334, 306.659 838.232 C 301.100 833.960, 300.578 833.771, 295.862 834.330 C 289.122 835.128, 273.194 842.793, 269.737 846.901 C 265.784 851.598, 266.039 855.931, 270.563 860.938 C 274.484 865.279, 278.176 866.784, 292.500 869.887 C 346.054 881.487, 415.263 884.840, 491.065 879.507 C 545.079 875.706, 555.964 874.076, 568.049 867.975 C 581.583 861.143, 585.958 853.365, 580.918 845.097 C 578.563 841.234, 575.831 838.685, 571.539 836.345 C 566.901 833.816, 552.663 829.264, 551 829.778 M 522 840.146 C 516.322 842.459, 472.626 852.902, 461.500 854.604 C 445.159 857.103, 411.414 857.139, 394.500 854.673 C 363.188 850.110, 339.468 845.382, 322.625 840.346 C 321.473 840.002, 320.997 840.186, 321.391 840.823 C 322.095 841.962, 339.992 849.194, 349.500 852.181 C 359.835 855.428, 375.053 858.805, 387 860.504 C 402.501 862.708, 435.840 863.597, 448.206 862.137 C 475.458 858.920, 503.222 851.513, 519.799 843.038 C 526.777 839.470, 528.179 837.627, 522 840.146 M 665 899.553 C 658.125 901.428, 640.800 905.269, 626.500 908.090 C 612.200 910.911, 599.825 913.597, 599 914.058 C 596.840 915.266, 609.910 914.119, 628.500 911.470 C 637.300 910.216, 644.630 909.315, 644.790 909.468 C 645.137 909.802, 620.737 918.370, 613.151 920.579 C 610.210 921.435, 607.968 922.301, 608.169 922.503 C 608.698 923.031, 635.608 917.243, 641.315 915.373 C 651.965 911.885, 645.808 914.959, 627.374 922.334 C 604.683 931.412, 586.724 936.235, 556.281 941.423 C 526.677 946.469, 504.572 948.858, 472.397 950.487 C 376.375 955.350, 323.725 952.434, 271.500 939.361 C 238.387 931.072, 206.403 921.313, 182.037 912.065 C 176.282 909.881, 171.415 908.251, 171.222 908.444 C 170.586 909.081, 192.275 921.666, 204.725 927.884 C 260.506 955.746, 313.343 969.086, 385.500 973.527 C 423.325 975.855, 444.785 975.486, 475.786 971.973 C 524.469 966.456, 550.201 961.289, 580.678 950.911 C 597.002 945.352, 625.561 932.393, 638.921 924.484 C 657.963 913.211, 681.968 896.004, 678.500 896.114 C 677.950 896.131, 671.875 897.679, 665 899.553 M 0 1040.003 L 0 1080.002 437.750 1079.751 L 875.500 1079.500 875.761 1039.500 L 876.022 999.500 438.011 999.752 L 0 1000.005 0 1040.003 M 0.456 1040 C 0.456 1062.275, 0.588 1071.388, 0.749 1060.250 C 0.910 1049.112, 0.910 1030.888, 0.749 1019.750 C 0.588 1008.612, 0.456 1017.725, 0.456 1040 M 212.200 1027.200 C 211.540 1027.860, 211.029 1029.098, 211.063 1029.950 C 211.102 1030.901, 211.476 1030.630, 212.031 1029.250 C 213.028 1026.769, 216.786 1026.186, 218.800 1028.200 C 220.360 1029.760, 220.335 1033.224, 218.750 1035.002 C 217.687 1036.194, 217.761 1036.206, 219.250 1035.079 C 221.425 1033.434, 221.515 1029.658, 219.429 1027.571 C 217.564 1025.706, 213.883 1025.517, 212.200 1027.200 M 30 1028.298 C 30 1029.224, 38.818 1053.151, 39.359 1053.692 C 41.002 1055.335, 42.922 1052.038, 46.766 1040.976 C 49.112 1034.223, 50.775 1028.442, 50.462 1028.128 C 49.560 1027.227, 48.487 1029.522, 44.983 1039.852 C 43.183 1045.158, 41.417 1049.837, 41.057 1050.248 C 40.697 1050.660, 38.610 1045.967, 36.417 1039.820 C 34.225 1033.673, 31.884 1028.461, 31.216 1028.239 C 30.547 1028.016, 30 1028.042, 30 1028.298 M 86 1037.935 C 86 1048.629, 86.858 1052.348, 89.567 1053.387 C 91.936 1054.296, 92.886 1053.075, 90.742 1051.875 C 88.348 1050.536, 88.127 1036, 90.500 1036 C 91.325 1036, 92 1035.550, 92 1035 C 92 1034.450, 91.325 1034, 90.500 1034 C 89.500 1034, 89 1033, 89 1031 C 89 1029, 88.500 1028, 87.500 1028 C 86.267 1028, 86 1029.771, 86 1037.935 M 128 1030 C 125.586 1032.414, 125.388 1037.238, 127.625 1039.128 C 128.519 1039.882, 131.300 1041.203, 133.806 1042.063 C 139.934 1044.166, 141.303 1046.466, 138.026 1049.155 C 135.653 1051.101, 133.951 1051.187, 126.741 1049.727 C 126.124 1049.602, 125.458 1050.229, 125.261 1051.121 C 124.837 1053.040, 127.609 1053.967, 133.827 1053.986 C 137.286 1053.997, 138.740 1053.414, 141.077 1051.077 C 146.121 1046.032, 144.206 1041.226, 136.076 1038.525 C 129.890 1036.471, 128.334 1034.808, 130.537 1032.606 C 132.533 1030.609, 134.675 1030.582, 138.364 1032.506 C 141.857 1034.328, 141.660 1034.328, 142.359 1032.508 C 143.119 1030.525, 138.185 1028, 133.550 1028 C 131.333 1028, 129.249 1028.751, 128 1030 M 147 1039.345 C 147 1049.066, 147.262 1050.927, 148.829 1052.345 C 149.835 1053.255, 151.383 1054, 152.270 1054 C 154.270 1054, 155.790 1051.763, 154.159 1051.220 C 151.210 1050.237, 150 1047.680, 150 1042.429 C 150 1037.305, 150.140 1037, 152.500 1037 C 154.056 1037, 155 1036.433, 155 1035.500 C 155 1034.567, 154.056 1034, 152.500 1034 C 150.389 1034, 150 1033.533, 150 1031 C 150 1029, 149.500 1028, 148.500 1028 C 147.255 1028, 147 1029.927, 147 1039.345 M 194 1041 C 194 1053.333, 194.103 1054, 196 1054 C 197.704 1054, 198 1053.333, 198 1049.500 C 198 1047.025, 198.338 1045.001, 198.750 1045.002 C 199.162 1045.003, 200.779 1047.028, 202.342 1049.502 C 204.459 1052.853, 205.814 1054, 207.656 1054 C 210.091 1054, 210.064 1053.909, 205.895 1047.965 L 201.662 1041.931 205.534 1037.965 C 208.994 1034.421, 209.175 1034, 207.238 1034 C 206.045 1034, 203.479 1035.397, 201.535 1037.104 L 198 1040.207 198 1034.104 C 198 1028.667, 197.782 1028, 196 1028 C 194.103 1028, 194 1028.667, 194 1041 M 214.079 1031.177 C 214.122 1033.005, 214.391 1033.919, 214.676 1033.208 C 215.030 1032.326, 215.575 1032.232, 216.393 1032.911 C 217.275 1033.643, 217.580 1033.196, 217.546 1031.217 C 217.516 1029.474, 216.884 1028.409, 215.750 1028.190 C 214.355 1027.922, 214.016 1028.528, 214.079 1031.177 M 215 1030 C 215 1030.550, 215.450 1031, 216 1031 C 216.550 1031, 217 1030.550, 217 1030 C 217 1029.450, 216.550 1029, 216 1029 C 215.450 1029, 215 1029.450, 215 1030 M 211.030 1032.679 C 210.985 1034.423, 213.895 1037.009, 215.821 1036.937 C 217.066 1036.890, 216.941 1036.648, 215.335 1036 C 214.145 1035.520, 212.696 1034.311, 212.116 1033.314 C 211.536 1032.316, 211.047 1032.030, 211.030 1032.679 M 54.229 1034.669 C 52.139 1035.510, 50 1040.636, 50 1044.804 C 50 1051.782, 56.603 1056.008, 63.418 1053.393 C 66.527 1052.200, 64.924 1051.254, 60.617 1051.740 C 57.072 1052.139, 55.829 1051.829, 54.117 1050.117 C 50.147 1046.147, 51.259 1045, 59.079 1045 L 66.159 1045 65.471 1041.750 C 64.196 1035.721, 59.292 1032.632, 54.229 1034.669 M 71.366 1036.362 C 68.898 1038.484, 68.500 1039.546, 68.500 1044 C 68.500 1048.454, 68.898 1049.516, 71.366 1051.638 C 73.590 1053.551, 75.141 1054.036, 78.288 1053.802 C 80.519 1053.636, 82.512 1052.991, 82.716 1052.368 C 82.970 1051.595, 81.724 1051.389, 78.791 1051.720 C 73.281 1052.341, 70.727 1049.897, 70.727 1044 C 70.727 1038.555, 73.266 1035.794, 77.960 1036.133 C 79.907 1036.274, 81.725 1035.964, 82 1035.444 C 82.275 1034.925, 80.640 1034.364, 78.366 1034.198 C 75.138 1033.963, 73.604 1034.437, 71.366 1036.362 M 96.589 1037.077 C 91.046 1043.664, 94.961 1054, 103 1054 C 111.273 1054, 115.179 1043.025, 109.077 1036.923 C 104.977 1032.823, 100.118 1032.883, 96.589 1037.077 M 115 1044 C 115 1050, 115.400 1054, 116 1054 C 116.578 1054, 117 1050.818, 117 1046.453 C 117 1039.118, 117.084 1038.859, 119.994 1037.203 C 121.640 1036.267, 122.990 1035.162, 122.994 1034.750 C 123.004 1033.562, 120.530 1033.878, 119.075 1035.250 C 118.015 1036.250, 117.658 1036.250, 117.292 1035.250 C 115.938 1031.559, 115 1035.140, 115 1044 M 160.299 1035.503 C 157.079 1037.758, 155.582 1043.202, 156.999 1047.497 C 158.391 1051.714, 161.380 1054, 165.500 1054 C 172.022 1054, 176.243 1047.297, 174.001 1040.503 C 172.609 1036.286, 169.620 1034, 165.500 1034 C 163.820 1034, 161.479 1034.676, 160.299 1035.503 M 179.685 1036.588 C 177.529 1038.744, 177 1040.204, 177 1044 C 177 1050.537, 180.554 1054.231, 186.426 1053.798 C 189.467 1053.575, 190.572 1053.028, 190.840 1051.617 C 191.142 1050.028, 190.778 1049.839, 188.514 1050.407 C 184.604 1051.388, 182.305 1050.314, 181.136 1046.959 C 179.010 1040.860, 182.958 1036.130, 188.881 1037.679 C 190.772 1038.174, 191.135 1037.935, 190.842 1036.393 C 190.572 1034.970, 189.475 1034.426, 186.426 1034.202 C 183.129 1033.959, 181.867 1034.405, 179.685 1036.588 M 53.557 1038.223 C 50.821 1042.129, 51.539 1043, 57.500 1043 C 62.265 1043, 63 1042.742, 63 1041.071 C 63 1036.273, 56.332 1034.261, 53.557 1038.223 M 98.073 1038.635 C 95.060 1042.465, 95.725 1048.781, 99.400 1051.235 C 103.545 1054.003, 110 1049.597, 110 1044 C 110 1040.033, 106.471 1036, 103 1036 C 101.107 1036, 99.447 1036.888, 98.073 1038.635 M 162 1039 C 158.295 1042.705, 160.714 1051, 165.500 1051 C 168.006 1051, 171 1047.189, 171 1044 C 171 1040.811, 168.006 1037, 165.500 1037 C 164.675 1037, 163.100 1037.900, 162 1039 M 601.408 1045.750 C 602.661 1049.463, 604.256 1052.500, 604.954 1052.500 C 606.142 1052.500, 611.356 1040.023, 610.518 1039.185 C 609.559 1038.226, 608.172 1040.316, 607.007 1044.474 C 606.310 1046.963, 605.390 1049, 604.962 1049 C 604.535 1049, 603.608 1046.750, 602.903 1044 C 602.199 1041.250, 601.062 1039, 600.377 1039 C 599.485 1039, 599.778 1040.916, 601.408 1045.750 M 660.200 1040.200 C 657.978 1042.422, 658.889 1044.979, 662.519 1046.710 C 666.734 1048.720, 666.519 1050.559, 662.092 1050.347 C 658.153 1050.158, 658.415 1052.354, 662.388 1052.822 C 668.513 1053.544, 670.067 1047.954, 664.481 1045.290 C 660.574 1043.426, 660.390 1041.581, 664.088 1041.349 C 668.324 1041.083, 668.528 1040.988, 667 1040 C 664.931 1038.663, 661.640 1038.760, 660.200 1040.200 M 698 1046 C 698 1050, 698.429 1053, 699 1053 C 699.550 1053, 700.002 1051.763, 700.005 1050.250 L 700.010 1047.500 702.415 1050.500 C 705.274 1054.066, 706.906 1053.312, 704.448 1049.561 C 702.827 1047.087, 702.831 1046.844, 704.523 1044.974 C 706.043 1043.295, 706.079 1043, 704.762 1043 C 703.911 1043, 702.955 1043.675, 702.638 1044.500 C 701.584 1047.247, 700 1046.047, 700 1042.500 C 700 1040.575, 699.550 1039, 699 1039 C 698.429 1039, 698 1042, 698 1046 M 754.197 1045.821 C 751.724 1053.499, 751.586 1054.374, 752.987 1053.508 C 753.530 1053.173, 754.716 1050.334, 755.623 1047.199 C 756.529 1044.065, 757.483 1040.938, 757.743 1040.250 C 758.002 1039.563, 757.804 1039, 757.304 1039 C 756.803 1039, 755.405 1042.069, 754.197 1045.821 M 761.001 1040.499 C 759.928 1041.791, 760.172 1041.916, 762.757 1041.399 C 767.445 1040.461, 767.829 1042.726, 763.633 1046.569 C 758.439 1051.328, 758.794 1053, 765 1053 C 767.750 1053, 770 1052.550, 770 1052 C 770 1051.450, 768.087 1050.985, 765.750 1050.966 L 761.500 1050.933 765.250 1047.869 C 769.103 1044.722, 769.906 1042.306, 767.800 1040.200 C 766.138 1038.538, 762.495 1038.698, 761.001 1040.499 M 770.500 1040 C 770.840 1040.550, 772.436 1041, 774.046 1041 L 776.975 1041 774.474 1046.654 C 773.099 1049.763, 772.205 1052.538, 772.487 1052.820 C 772.769 1053.103, 773.172 1053.146, 773.381 1052.917 C 774.001 1052.240, 780 1040.105, 780 1039.529 C 780 1039.238, 777.723 1039, 774.941 1039 C 771.823 1039, 770.119 1039.384, 770.500 1040 M 782.035 1040.934 C 781.466 1041.998, 781 1044.278, 781 1046 C 781 1050.407, 782.653 1053, 785.464 1053 C 788.957 1053, 791 1050.417, 791 1046 C 791 1043.827, 790.314 1041.457, 789.429 1040.571 C 787.256 1038.399, 783.288 1038.594, 782.035 1040.934 M 794.457 1041.314 C 794.138 1042.587, 793.976 1044.050, 794.097 1044.564 C 794.218 1045.079, 793.949 1046.349, 793.500 1047.386 C 791.862 1051.163, 797.211 1054.730, 800.464 1052.030 C 802.037 1050.725, 802.241 1042.142, 800.744 1040.250 C 799.024 1038.076, 795.103 1038.740, 794.457 1041.314 M 806 1040.918 C 806 1041.973, 805.728 1043.546, 805.395 1044.414 C 804.899 1045.705, 805.332 1045.884, 807.773 1045.395 C 811.175 1044.715, 812.452 1046.001, 811.464 1049.114 C 810.926 1050.810, 810.246 1051.099, 807.899 1050.630 C 804.855 1050.021, 803.863 1051.350, 806.582 1052.393 C 809.771 1053.617, 812.061 1052.960, 813.182 1050.500 C 814.672 1047.230, 812.889 1043, 810.021 1043 C 808.910 1043, 808 1042.550, 808 1042 C 808 1041.450, 809.125 1041, 810.500 1041 C 811.875 1041, 813 1040.550, 813 1040 C 813 1039.450, 811.425 1039, 809.500 1039 C 806.716 1039, 806 1039.393, 806 1040.918 M 817.200 1040.200 C 814.326 1043.074, 817.797 1049.480, 821.117 1047.428 C 821.773 1047.022, 822.053 1047.492, 821.836 1048.632 C 821.640 1049.659, 820.472 1050.644, 819.240 1050.820 C 816.217 1051.251, 816.380 1053, 819.443 1053 C 822.511 1053, 825 1049.573, 825 1045.349 C 825 1040.210, 820.296 1037.104, 817.200 1040.200 M 827.919 1041.152 C 826.938 1042.984, 827.007 1043.211, 828.384 1042.683 C 829.724 1042.169, 830 1042.827, 830 1046.531 C 830 1048.989, 829.550 1051, 829 1051 C 828.450 1051, 828 1051.450, 828 1052 C 828 1052.550, 829.350 1053, 831 1053 C 832.650 1053, 834 1052.550, 834 1052 C 834 1051.450, 833.550 1051, 833 1051 C 832.444 1051, 832 1048.333, 832 1045 C 832 1040.397, 831.659 1039, 830.535 1039 C 829.730 1039, 828.552 1039.968, 827.919 1041.152 M 838.743 1043.541 C 835.279 1049.275, 835.308 1050, 839 1050 C 841 1050, 842 1050.500, 842 1051.500 C 842 1053.579, 843.675 1053.387, 844.181 1051.250 C 844.958 1047.970, 843.834 1039, 842.646 1039 C 842.008 1039, 840.251 1041.043, 838.743 1043.541 M 633.746 1042.250 C 633.489 1042.938, 633.553 1045.525, 633.889 1048 C 634.414 1051.864, 634.854 1052.540, 637 1052.779 C 639.295 1053.036, 639.356 1052.945, 637.750 1051.669 C 635.741 1050.073, 635.394 1045.369, 637.241 1044.753 C 638.144 1044.452, 638.027 1043.884, 636.813 1042.670 C 634.814 1040.671, 634.360 1040.609, 633.746 1042.250 M 669.746 1042.250 C 669.489 1042.938, 669.553 1045.519, 669.889 1047.987 C 670.321 1051.159, 671.013 1052.572, 672.250 1052.810 C 673.212 1052.995, 674 1052.664, 674 1052.073 C 674 1051.483, 673.550 1051, 673 1051 C 671.548 1051, 671.770 1045.243, 673.241 1044.753 C 674.144 1044.452, 674.027 1043.884, 672.813 1042.670 C 670.814 1040.671, 670.360 1040.609, 669.746 1042.250 M 783.411 1043.500 C 782.451 1047.324, 783.720 1051, 786 1051 C 787.259 1051, 788.187 1050.104, 788.589 1048.500 C 789.549 1044.676, 788.280 1041, 786 1041 C 784.741 1041, 783.813 1041.896, 783.411 1043.500 M 796.173 1042.659 C 796.368 1043.672, 797.196 1044.500, 798.014 1044.500 C 800.157 1044.500, 799.848 1041.594, 797.659 1041.173 C 796.323 1040.916, 795.916 1041.323, 796.173 1042.659 M 818.380 1042.452 C 817.676 1044.286, 818.700 1046, 820.500 1046 C 822.339 1046, 823.147 1044.547, 822.396 1042.590 C 821.633 1040.601, 819.123 1040.515, 818.380 1042.452 M 839.659 1045 C 837.925 1047.935, 837.931 1048, 839.943 1048 C 841.562 1048, 842 1047.361, 842 1045 C 842 1043.350, 841.872 1042, 841.716 1042 C 841.559 1042, 840.634 1043.350, 839.659 1045 M 613.200 1044.200 C 610.093 1047.307, 613.231 1053.364, 617.657 1052.804 C 620.730 1052.416, 620.277 1050.623, 617.088 1050.553 C 613.021 1050.464, 613.338 1048, 617.417 1048 C 619.690 1048, 621 1047.525, 621 1046.700 C 621 1044.753, 618.869 1043, 616.500 1043 C 615.345 1043, 613.860 1043.540, 613.200 1044.200 M 624.626 1044.517 C 620.962 1048.181, 623.960 1053.589, 629.223 1052.813 C 632.662 1052.305, 632.293 1050.479, 628.753 1050.490 C 625.947 1050.499, 625.500 1050.156, 625.500 1048 C 625.500 1046.014, 626.014 1045.489, 628 1045.447 C 631.255 1045.378, 631.776 1043.590, 628.657 1043.196 C 627.334 1043.028, 625.520 1043.623, 624.626 1044.517 M 641.200 1044.200 C 638.372 1047.028, 640.951 1053, 645 1053 C 647.386 1053, 650 1050.386, 650 1048 C 650 1043.951, 644.028 1041.372, 641.200 1044.200 M 652 1048.125 C 652 1050.806, 652.450 1053, 653 1053 C 653.550 1053, 654 1051.682, 654 1050.071 C 654 1048.461, 654.675 1046.468, 655.500 1045.643 C 657.547 1043.596, 657.403 1043.250, 654.500 1043.250 C 652.175 1043.250, 652 1043.592, 652 1048.125 M 677.571 1044.571 C 674.539 1047.604, 676.734 1053, 681 1053 C 683.386 1053, 686 1050.386, 686 1048 C 686 1045.614, 683.386 1043, 681 1043 C 679.979 1043, 678.436 1043.707, 677.571 1044.571 M 689.750 1044.056 C 687.261 1045.540, 687.454 1050.637, 690.052 1052.028 C 692.405 1053.287, 696.186 1052.981, 696.675 1051.490 C 696.857 1050.935, 695.543 1050.485, 693.753 1050.490 C 690.947 1050.499, 690.500 1050.156, 690.500 1048 C 690.500 1046.014, 691.014 1045.489, 693 1045.447 C 694.375 1045.418, 695.626 1044.968, 695.781 1044.447 C 696.182 1043.097, 691.832 1042.815, 689.750 1044.056 M 714.626 1044.517 C 710.962 1048.181, 713.960 1053.589, 719.223 1052.813 C 722.662 1052.305, 722.293 1050.479, 718.753 1050.490 C 715.947 1050.499, 715.500 1050.156, 715.500 1048 C 715.500 1046.014, 716.014 1045.489, 718 1045.447 C 721.255 1045.378, 721.776 1043.590, 718.657 1043.196 C 717.334 1043.028, 715.520 1043.623, 714.626 1044.517 M 724.571 1044.571 C 721.539 1047.604, 723.734 1053, 728 1053 C 730.386 1053, 733 1050.386, 733 1048 C 733 1045.614, 730.386 1043, 728 1043 C 726.979 1043, 725.436 1043.707, 724.571 1044.571 M 735 1048.118 C 735 1053.835, 736.736 1054.732, 737.190 1049.250 C 737.439 1046.238, 737.943 1045.437, 739.750 1045.180 C 741.767 1044.894, 742 1045.282, 742 1048.930 C 742 1054.039, 743.771 1054.304, 744.190 1049.258 C 744.407 1046.643, 745.027 1045.417, 746.250 1045.185 C 747.685 1044.913, 748 1045.588, 748 1048.927 C 748 1051.167, 748.475 1053, 749.055 1053 C 749.689 1053, 749.988 1051.107, 749.805 1048.250 L 749.500 1043.500 742.250 1043.368 L 735 1043.236 735 1048.118 M 615.813 1045.683 C 616.534 1045.972, 617.397 1045.936, 617.729 1045.604 C 618.061 1045.272, 617.471 1045.036, 616.417 1045.079 C 615.252 1045.127, 615.015 1045.364, 615.813 1045.683 M 642.362 1046.500 C 641.477 1048.805, 642.720 1051, 644.910 1051 C 647.385 1051, 648.313 1049.562, 647.497 1046.991 C 646.757 1044.661, 643.198 1044.320, 642.362 1046.500 M 678.362 1046.500 C 677.484 1048.787, 678.713 1051, 680.862 1051 C 683.010 1051, 684.239 1048.787, 683.362 1046.500 C 683.045 1045.675, 681.920 1045, 680.862 1045 C 679.803 1045, 678.678 1045.675, 678.362 1046.500 M 725.362 1046.500 C 724.478 1048.802, 725.719 1051, 727.901 1051 C 729.931 1051, 731.606 1047.790, 730.506 1046.009 C 729.554 1044.469, 726.011 1044.807, 725.362 1046.500 M 795.352 1047.524 C 794.563 1049.581, 796.393 1051.447, 798.433 1050.664 C 800.586 1049.838, 800.397 1048.283, 797.985 1046.992 C 796.386 1046.136, 795.843 1046.246, 795.352 1047.524 M 708 1052 C 708 1052.550, 708.450 1053, 709 1053 C 709.550 1053, 710 1052.550, 710 1052 C 710 1051.450, 709.550 1051, 709 1051 C 708.450 1051, 708 1051.450, 708 1052" stroke="none" fill="#000000" fill-rule="evenodd"/>
</svg>